<?xml version="1.0" encoding="UTF-8" standalone="no"?>
<!DOCTYPE svg PUBLIC "-//W3C//DTD SVG 1.1//EN" "http://www.w3.org/Graphics/SVG/1.1/DTD/svg11.dtd">
<svg xmlns="http://www.w3.org/2000/svg" version="1.1" viewBox="0.00 0.00 1355.00 1419.00">
<g stroke-width="2.00" fill="none" stroke-linecap="butt">
<path stroke="#9d9286" vector-effect="non-scaling-stroke" d="
  M 815.91 494.39
  Q 814.68 494.27 814.11 493.30
  Q 809.69 485.88 805.22 478.04
  C 786.42 445.07 759.59 413.82 724.01 398.81
  C 694.04 386.17 663.68 389.45 635.46 404.40
  Q 593.78 426.48 573.49 467.38
  Q 571.14 472.11 567.24 476.75
  C 560.02 485.32 551.31 488.62 540.22 487.68
  Q 531.57 486.94 523.63 484.14
  Q 516.92 481.77 516.07 474.82
  Q 515.06 466.61 514.02 458.24
  C 511.86 440.84 508.65 423.64 506.80 406.20
  C 505.14 390.49 503.17 374.48 498.72 359.25
  C 485.90 315.33 450.32 282.29 404.82 275.67
  Q 372.54 270.97 342.79 282.68
  C 297.54 300.49 270.05 346.36 271.36 394.54
  Q 271.56 402.11 273.21 413.99
  Q 277.68 446.23 283.18 481.24
  Q 284.74 491.14 276.94 495.97
  C 256.24 508.82 245.13 529.85 247.18 553.96
  Q 248.83 573.54 262.53 589.29
  C 268.45 596.10 276.66 599.85 276.34 610.35
  C 275.76 629.75 275.38 648.54 276.46 668.04
  C 276.74 672.95 276.78 679.39 272.14 681.90
  Q 268.51 683.86 264.39 683.69
  Q 239.77 682.68 226.03 701.40
  C 215.47 715.77 214.93 735.76 224.23 750.76
  C 230.20 760.37 240.10 767.42 251.41 769.36
  Q 255.56 770.07 258.55 771.77
  Q 264.38 775.09 265.55 782.84
  Q 287.68 928.70 310.98 1078.56
  Q 312.43 1087.90 314.04 1095.08
  C 319.44 1119.15 335.70 1138.26 358.77 1146.47
  Q 372.16 1151.24 385.00 1151.24
  Q 652.53 1151.21 920.76 1151.31
  Q 932.99 1151.31 939.94 1150.18
  C 966.63 1145.82 987.07 1128.93 996.23 1103.06
  Q 998.71 1096.07 999.74 1089.50
  Q 1022.50 944.21 1047.36 780.95
  C 1048.74 771.82 1054.80 770.62 1062.49 769.18
  C 1082.63 765.42 1095.26 746.01 1094.80 726.52
  C 1094.22 701.70 1074.69 683.79 1050.21 683.35
  Q 1037.79 683.13 1025.12 683.29
  A 0.65 0.64 -87.6 0 1 1024.47 682.58
  Q 1024.98 677.45 1025.61 673.01
  Q 1037.39 589.79 1049.49 505.43
  Q 1057.44 449.97 1063.44 402.24
  C 1070.38 347.08 1037.23 297.11 984.56 279.94
  Q 944.60 266.91 907.38 281.60
  C 869.33 296.61 840.04 332.08 834.20 372.41
  Q 825.44 432.96 816.60 493.85
  Q 816.51 494.45 815.91 494.39"
/>
<path stroke="#9d9286" vector-effect="non-scaling-stroke" d="
  M 473.21 380.85
  C 465.19 328.67 417.19 292.04 364.47 306.70
  C 327.81 316.90 303.02 347.44 300.94 385.69
  Q 300.53 393.25 301.95 405.76
  Q 303.25 417.24 304.70 426.77
  Q 308.87 454.08 312.39 478.91
  Q 313.31 485.41 319.99 484.72
  Q 351.43 481.49 378.60 479.88
  Q 412.35 477.87 430.50 478.43
  Q 451.99 479.09 478.69 481.05
  C 482.98 481.36 487.14 480.83 486.42 475.51
  C 482.15 443.94 478.05 412.33 473.21 380.85"
/>
<path stroke="#9d9286" vector-effect="non-scaling-stroke" d="
  M 984.11 311.49
  Q 950.71 296.66 918.23 309.04
  C 888.86 320.24 867.78 347.54 863.26 378.32
  Q 850.04 468.33 838.86 546.85
  Q 838.02 552.77 839.81 558.54
  Q 857.22 614.49 860.34 676.16
  Q 860.70 683.31 867.44 683.51
  C 872.13 683.64 877.52 683.26 881.51 683.26
  Q 926.25 683.25 970.99 683.24
  C 976.67 683.24 982.86 683.74 988.01 683.44
  Q 994.35 683.08 995.22 676.94
  Q 1014.75 539.32 1033.25 407.48
  Q 1034.95 395.36 1034.88 387.69
  C 1034.58 354.12 1014.60 325.03 984.11 311.49"
/>
<path stroke="#9d9286" vector-effect="non-scaling-stroke" d="
  M 713.14 426.58
  Q 683.92 413.75 654.43 428.21
  C 633.82 438.31 616.80 455.70 603.17 475.57
  Q 571.45 521.83 556.14 577.92
  Q 543.14 625.61 540.00 678.28
  C 539.64 684.38 547.63 683.69 551.59 683.47
  Q 555.17 683.27 558.92 683.25
  Q 582.41 683.12 605.91 683.47
  C 610.93 683.55 613.89 682.85 615.47 677.91
  Q 619.75 664.56 627.41 654.37
  C 637.75 640.62 652.11 632.74 669.08 628.53
  Q 701.91 620.38 731.95 612.97
  C 739.26 611.18 750.10 609.02 755.55 616.01
  C 759.50 621.08 759.19 628.91 758.08 635.09
  Q 753.44 661.00 734.25 678.27
  Q 731.58 680.68 729.13 682.75
  Q 728.48 683.30 729.33 683.30
  Q 780.03 683.07 823.88 683.50
  Q 831.37 683.58 830.95 676.36
  C 827.13 611.25 811.00 547.14 778.19 490.97
  C 764.52 467.57 747.13 447.04 724.64 432.69
  Q 719.31 429.29 713.14 426.58"
/>
<path stroke="#9d9286" vector-effect="non-scaling-stroke" d="
  M 278.73 536.78
  Q 275.05 546.25 276.97 554.76
  C 279.23 564.76 285.71 572.65 294.86 577.44
  C 301.26 580.78 305.64 586.92 305.68 594.00
  Q 305.82 622.38 305.73 651.25
  C 305.70 659.45 305.23 668.09 305.63 676.24
  C 305.90 681.75 310.32 683.75 315.26 683.63
  Q 326.07 683.37 336.00 683.34
  Q 413.93 683.13 497.31 683.30
  C 499.90 683.30 502.40 683.53 505.01 683.40
  C 510.12 683.14 510.50 679.50 510.71 675.43
  C 513.38 623.35 524.01 571.86 543.73 523.51
  C 546.12 517.64 541.20 516.12 536.76 515.68
  Q 525.64 514.56 511.75 513.06
  C 443.96 505.73 375.52 507.07 307.70 515.80
  C 294.51 517.50 283.53 524.36 278.73 536.78"
/>
<path stroke="#9d9286" vector-effect="non-scaling-stroke" d="
  M 695.32 734.37
  C 725.85 744.69 756.63 754.98 787.37 765.39
  C 793.34 767.41 794.13 764.19 795.64 759.58
  Q 803.45 735.73 810.84 713.33
  Q 811.06 712.69 810.38 712.70
  Q 790.09 713.14 768.67 713.41
  Q 756.78 713.57 745.32 712.69
  Q 734.42 711.87 728.21 712.82
  C 715.41 714.80 704.32 724.51 695.19 733.82
  Q 694.82 734.20 695.32 734.37"
/>
<path stroke="#9d9286" vector-effect="non-scaling-stroke" d="
  M 1011.62 721.91
  Q 1007.49 730.61 1002.14 741.23
  A 0.39 0.39 0.0 0 0 1002.49 741.79
  C 1017.69 741.55 1032.27 742.32 1048.07 741.67
  Q 1053.92 741.43 1056.35 740.47
  C 1064.37 737.30 1067.39 728.55 1063.52 720.81
  C 1062.10 717.98 1058.76 716.63 1055.91 715.78
  Q 1041.13 711.39 1023.94 712.41
  C 1021.80 712.54 1016.34 713.25 1015.12 715.33
  Q 1013.17 718.66 1011.62 721.91"
/>
<path stroke="#9d9286" vector-effect="non-scaling-stroke" d="
  M 297.63 739.13
  C 302.04 730.57 306.18 722.05 310.41 713.32
  Q 310.71 712.71 310.03 712.71
  Q 290.25 712.82 266.31 712.70
  C 256.90 712.65 250.26 715.02 247.61 724.66
  Q 246.22 729.72 249.56 734.87
  Q 252.45 739.34 257.68 740.13
  Q 270.48 742.07 283.28 742.22
  Q 289.17 742.28 294.60 741.41
  Q 296.63 741.08 297.63 739.13"
/>
<path stroke="#9d9286" vector-effect="non-scaling-stroke" d="
  M 342.27 716.01
  C 338.15 724.38 334.17 732.81 329.91 741.15
  A 0.40 0.40 0.0 0 0 330.27 741.73
  Q 355.41 741.77 380.63 741.74
  Q 384.06 741.73 385.55 738.71
  Q 389.07 731.56 393.12 723.91
  Q 395.92 718.61 397.20 713.08
  A 0.27 0.27 0.0 0 0 396.94 712.75
  Q 371.15 712.74 349.90 712.76
  C 347.06 712.76 343.71 713.09 342.27 716.01"
/>
<path stroke="#9d9286" vector-effect="non-scaling-stroke" d="
  M 426.60 722.83
  Q 422.23 732.16 417.80 740.84
  Q 417.54 741.35 418.11 741.39
  Q 430.67 742.41 440.66 741.47
  C 445.89 740.98 447.25 737.63 446.06 732.96
  Q 443.84 724.26 440.53 715.52
  C 439.06 711.66 432.33 712.06 430.56 715.15
  Q 428.60 718.57 426.60 722.83"
/>
<path stroke="#9d9286" vector-effect="non-scaling-stroke" d="
  M 472.97 723.79
  Q 487.71 780.73 504.05 846.81
  A 0.51 0.50 64.0 0 0 504.85 847.09
  L 671.95 713.40
  Q 672.78 712.73 671.71 712.73
  Q 576.93 712.78 481.69 712.71
  C 478.56 712.71 470.54 711.65 471.51 717.16
  Q 472.07 720.30 472.97 723.79"
/>
<path stroke="#9d9286" vector-effect="non-scaling-stroke" d="
  M 885.64 732.35
  Q 890.16 722.80 895.04 713.18
  A 0.30 0.30 0.0 0 0 894.77 712.74
  Q 874.04 712.77 852.11 712.72
  C 849.61 712.72 847.59 713.54 845.78 715.29
  Q 838.21 722.59 834.49 733.45
  C 833.65 735.91 832.53 741.75 836.78 741.75
  Q 854.81 741.75 876.79 741.74
  C 882.23 741.74 883.61 736.65 885.64 732.35"
/>
<path stroke="#9d9286" vector-effect="non-scaling-stroke" d="
  M 970.33 738.53
  C 974.25 730.00 978.50 721.73 982.74 713.33
  Q 983.04 712.73 982.37 712.73
  Q 958.13 712.79 933.52 712.71
  C 930.49 712.70 927.83 714.01 926.48 716.79
  Q 920.57 728.96 914.32 741.36
  A 0.28 0.27 12.8 0 0 914.57 741.75
  Q 936.87 741.74 964.15 741.76
  C 966.57 741.76 969.28 740.81 970.33 738.53"
/>
<path stroke="#9d9286" vector-effect="non-scaling-stroke" d="
  M 451.2108 843.7957
  A 13.96 13.96 0.0 0 0 437.2752 829.8114
  L 378.4553 829.7087
  A 13.96 13.96 0.0 0 0 364.4710 843.6443
  L 364.4692 844.6843
  A 13.96 13.96 0.0 0 0 378.4048 858.6686
  L 437.2247 858.7713
  A 13.96 13.96 0.0 0 0 451.2090 844.8357
  L 451.2108 843.7957"
/>
<path stroke="#9d9286" vector-effect="non-scaling-stroke" d="
  M 698.63 838.44
  C 696.39 832.11 689.93 829.72 683.70 829.73
  Q 642.02 829.82 602.36 829.68
  C 594.29 829.65 587.10 831.18 584.41 839.50
  C 580.54 851.50 589.58 858.67 600.47 858.70
  Q 642.33 858.80 683.86 858.71
  Q 688.79 858.70 693.01 856.55
  C 699.52 853.23 700.89 844.83 698.63 838.44"
/>
<path stroke="#9d9286" vector-effect="non-scaling-stroke" d="
  M 845.77 843.72
  A 13.96 13.96 0.0 0 0 831.81 829.76
  L 772.97 829.76
  A 13.96 13.96 0.0 0 0 759.01 843.72
  L 759.01 844.76
  A 13.96 13.96 0.0 0 0 772.97 858.72
  L 831.81 858.72
  A 13.96 13.96 0.0 0 0 845.77 844.76
  L 845.77 843.72"
/>
<path stroke="#9d9286" vector-effect="non-scaling-stroke" d="
  M 977.2690 843.6016
  A 13.94 13.94 0.0 0 0 963.3047 829.6860
  L 889.9048 829.8141
  A 13.94 13.94 0.0 0 0 875.9891 843.7784
  L 875.9910 844.8784
  A 13.94 13.94 0.0 0 0 889.9553 858.7940
  L 963.3552 858.6659
  A 13.94 13.94 0.0 0 0 977.2709 844.7016
  L 977.2690 843.6016"
/>
<path stroke="#9d9286" vector-effect="non-scaling-stroke" d="
  M 465.79 916.83
  A 14.05 14.05 0.0 0 0 451.74 902.78
  L 363.82 902.78
  A 14.05 14.05 0.0 0 0 349.77 916.83
  L 349.77 917.69
  A 14.05 14.05 0.0 0 0 363.82 931.74
  L 451.74 931.74
  A 14.05 14.05 0.0 0 0 465.79 917.69
  L 465.79 916.83"
/>
<path stroke="#9d9286" vector-effect="non-scaling-stroke" d="
  M 543.57 902.77
  C 537.14 902.78 529.78 904.15 526.78 910.51
  C 524.51 915.34 524.08 921.73 527.76 926.03
  C 531.34 930.21 538.00 931.73 543.25 931.73
  Q 593.49 931.73 651.92 931.77
  C 659.02 931.77 667.76 929.39 669.99 922.06
  Q 671.55 916.91 669.07 911.17
  C 666.27 904.67 659.46 902.77 652.81 902.76
  C 636.48 902.74 620.74 902.49 605.00 902.94
  Q 598.99 903.11 592.99 902.96
  C 576.54 902.55 560.24 902.75 543.57 902.77"
/>
<path stroke="#9d9286" vector-effect="non-scaling-stroke" d="
  M 801.98 916.75
  A 13.96 13.96 0.0 0 0 788.02 902.79
  L 729.18 902.79
  A 13.96 13.96 0.0 0 0 715.22 916.75
  L 715.22 917.77
  A 13.96 13.96 0.0 0 0 729.18 931.73
  L 788.02 931.73
  A 13.96 13.96 0.0 0 0 801.98 917.77
  L 801.98 916.75"
/>
<path stroke="#9d9286" vector-effect="non-scaling-stroke" d="
  M 948.04 916.74
  A 13.96 13.96 0.0 0 0 934.08 902.78
  L 860.70 902.78
  A 13.96 13.96 0.0 0 0 846.74 916.74
  L 846.74 917.78
  A 13.96 13.96 0.0 0 0 860.70 931.74
  L 934.08 931.74
  A 13.96 13.96 0.0 0 0 948.04 917.78
  L 948.04 916.74"
/>
<path stroke="#9d9286" vector-effect="non-scaling-stroke" d="
  M 465.75 989.78
  A 13.93 13.93 0.0 0 0 451.82 975.85
  L 392.98 975.85
  A 13.93 13.93 0.0 0 0 379.05 989.78
  L 379.05 990.96
  A 13.93 13.93 0.0 0 0 392.98 1004.89
  L 451.82 1004.89
  A 13.93 13.93 0.0 0 0 465.75 990.96
  L 465.75 989.78"
/>
<path stroke="#9d9286" vector-effect="non-scaling-stroke" d="
  M 582.72 989.76
  A 13.91 13.91 0.0 0 0 568.81 975.85
  L 509.93 975.85
  A 13.91 13.91 0.0 0 0 496.02 989.76
  L 496.02 990.98
  A 13.91 13.91 0.0 0 0 509.93 1004.89
  L 568.81 1004.89
  A 13.91 13.91 0.0 0 0 582.72 990.98
  L 582.72 989.76"
/>
<path stroke="#9d9286" vector-effect="non-scaling-stroke" d="
  M 699.67 989.87
  A 14.00 14.00 0.0 0 0 685.67 975.87
  L 626.91 975.87
  A 14.00 14.00 0.0 0 0 612.91 989.87
  L 612.91 990.89
  A 14.00 14.00 0.0 0 0 626.91 1004.89
  L 685.67 1004.89
  A 14.00 14.00 0.0 0 0 699.67 990.89
  L 699.67 989.87"
/>
<path stroke="#9d9286" vector-effect="non-scaling-stroke" d="
  M 759.12 987.31
  C 757.28 997.63 764.74 1004.55 774.54 1004.67
  C 779.26 1004.72 784.15 1004.94 788.84 1004.96
  Q 840.44 1005.17 891.25 1004.82
  Q 895.95 1004.78 901.00 1004.72
  C 911.32 1004.57 921.15 999.87 918.57 987.43
  C 916.64 978.10 908.90 975.92 900.47 975.77
  C 892.21 975.62 884.06 976.01 875.87 976.01
  Q 826.70 976.01 777.58 975.98
  C 769.88 975.98 760.74 978.28 759.12 987.31"
/>
<path stroke="#9d9286" vector-effect="non-scaling-stroke" d="
  M 494.02 1068.85
  C 498.77 1055.30 488.49 1049.00 476.75 1049.00
  Q 429.47 1048.99 381.29 1049.01
  C 372.43 1049.01 364.55 1052.75 364.46 1062.84
  C 364.36 1074.26 372.03 1077.98 382.38 1077.99
  Q 428.68 1078.04 479.36 1077.96
  C 485.49 1077.95 491.85 1075.06 494.02 1068.85"
/>
<path stroke="#9d9286" vector-effect="non-scaling-stroke" d="
  M 626.52 1062.92
  A 13.90 13.90 0.0 0 0 612.62 1049.02
  L 553.68 1049.02
  A 13.90 13.90 0.0 0 0 539.78 1062.92
  L 539.78 1064.06
  A 13.90 13.90 0.0 0 0 553.68 1077.96
  L 612.62 1077.96
  A 13.90 13.90 0.0 0 0 626.52 1064.06
  L 626.52 1062.92"
/>
<path stroke="#9d9286" vector-effect="non-scaling-stroke" d="
  M 816.36 1060.95
  C 814.80 1052.66 808.19 1049.02 800.40 1049.01
  Q 751.67 1048.99 703.08 1049.00
  C 695.82 1049.00 688.54 1051.53 686.56 1059.28
  C 683.06 1072.99 693.52 1078.00 705.17 1078.00
  Q 750.14 1078.04 798.51 1077.95
  C 808.59 1077.93 818.61 1072.91 816.36 1060.95"
/>
<path stroke="#9d9286" vector-effect="non-scaling-stroke" d="
  M 948.04 1062.97
  A 13.96 13.96 0.0 0 0 934.08 1049.01
  L 875.26 1049.01
  A 13.96 13.96 0.0 0 0 861.30 1062.97
  L 861.30 1063.99
  A 13.96 13.96 0.0 0 0 875.26 1077.95
  L 934.08 1077.95
  A 13.96 13.96 0.0 0 0 948.04 1063.99
  L 948.04 1062.97"
/>
<path stroke="#9d9286" vector-effect="non-scaling-stroke" d="
  M 431.72 405.05
  C 404.97 396.11 377.58 387.04 350.48 378.08
  C 343.99 375.94 336.94 375.72 332.44 381.58
  C 324.33 392.13 330.18 402.13 341.37 405.94
  Q 378.45 418.58 420.90 432.47
  Q 424.93 433.79 428.85 434.83
  Q 432.51 435.81 437.63 433.41
  C 446.79 429.12 448.13 416.29 441.33 409.83
  Q 438.79 407.41 431.72 405.05"
/>
<path stroke="#9d9286" vector-effect="non-scaling-stroke" d="
  M 998.77 418.70
  C 1008.24 415.37 1009.31 404.80 1004.16 397.20
  C 998.22 388.44 990.02 390.95 981.74 393.71
  Q 938.44 408.15 900.76 420.82
  C 893.58 423.23 888.78 429.21 890.24 437.04
  Q 892.29 447.99 902.90 449.63
  Q 905.55 450.04 908.32 449.14
  Q 963.71 431.06 998.77 418.70"
/>
<path stroke="#9d9286" vector-effect="non-scaling-stroke" d="
  M 991.2188 487.9562
  A 13.86 13.86 0.0 0 0 973.6772 479.2102
  L 884.8003 508.9480
  A 13.86 13.86 0.0 0 0 876.0544 526.4896
  L 876.5812 528.0638
  A 13.86 13.86 0.0 0 0 894.1228 536.8098
  L 982.9997 507.0720
  A 13.86 13.86 0.0 0 0 991.7456 489.5304
  L 991.2188 487.9562"
/>
<path stroke="#9d9286" vector-effect="non-scaling-stroke" d="
  M 976.7901 576.1725
  A 14.30 14.30 0.0 0 0 958.7074 567.1174
  L 870.5757 596.4349
  A 14.30 14.30 0.0 0 0 861.5206 614.5176
  L 861.8299 615.4475
  A 14.30 14.30 0.0 0 0 879.9126 624.5026
  L 968.0443 595.1851
  A 14.30 14.30 0.0 0 0 977.0994 577.1024
  L 976.7901 576.1725"
/>
<path stroke="#9d9286" vector-effect="non-scaling-stroke" d="
  M 711.82 560.07
  C 737.97 550.35 756.91 526.69 758.53 498.64
  C 759.40 483.54 751.46 476.62 736.51 480.28
  Q 705.39 487.90 673.00 495.91
  Q 661.55 498.75 655.00 501.61
  C 629.83 512.58 610.97 538.88 612.64 566.67
  C 613.34 578.33 622.34 582.62 632.74 580.17
  Q 655.39 574.83 692.55 565.40
  Q 708.16 561.43 711.82 560.07"
/>
<path stroke="#9d9286" vector-effect="non-scaling-stroke" d="
  M 393.24 551.94
  A 14.73 14.73 0.0 0 0 378.51 537.21
  A 14.73 14.73 0.0 0 0 363.78 551.94
  A 14.73 14.73 0.0 0 0 378.51 566.67
  A 14.73 14.73 0.0 0 0 393.24 551.94"
/>
<path stroke="#9d9286" vector-effect="non-scaling-stroke" d="
  M 495.55 566.55
  A 14.73 14.73 0.0 0 0 480.82 551.82
  A 14.73 14.73 0.0 0 0 466.09 566.55
  A 14.73 14.73 0.0 0 0 480.82 581.28
  A 14.73 14.73 0.0 0 0 495.55 566.55"
/>
<path stroke="#9d9286" vector-effect="non-scaling-stroke" d="
  M 378.70 639.57
  A 14.73 14.73 0.0 0 0 363.97 624.84
  A 14.73 14.73 0.0 0 0 349.24 639.57
  A 14.73 14.73 0.0 0 0 363.97 654.30
  A 14.73 14.73 0.0 0 0 378.70 639.57"
/>
<path stroke="#9d9286" vector-effect="non-scaling-stroke" d="
  M 480.99 654.17
  A 14.73 14.73 0.0 0 0 466.26 639.44
  A 14.73 14.73 0.0 0 0 451.53 654.17
  A 14.73 14.73 0.0 0 0 466.26 668.90
  A 14.73 14.73 0.0 0 0 480.99 654.17"
/>
</g>
<path fill="#f7f7f7" d="
  M 0.00 0.00
  L 1355.00 0.00
  L 1355.00 1419.00
  L 0.00 1419.00
  L 0.00 0.00
  Z
  M 815.91 494.39
  Q 814.68 494.27 814.11 493.30
  Q 809.69 485.88 805.22 478.04
  C 786.42 445.07 759.59 413.82 724.01 398.81
  C 694.04 386.17 663.68 389.45 635.46 404.40
  Q 593.78 426.48 573.49 467.38
  Q 571.14 472.11 567.24 476.75
  C 560.02 485.32 551.31 488.62 540.22 487.68
  Q 531.57 486.94 523.63 484.14
  Q 516.92 481.77 516.07 474.82
  Q 515.06 466.61 514.02 458.24
  C 511.86 440.84 508.65 423.64 506.80 406.20
  C 505.14 390.49 503.17 374.48 498.72 359.25
  C 485.90 315.33 450.32 282.29 404.82 275.67
  Q 372.54 270.97 342.79 282.68
  C 297.54 300.49 270.05 346.36 271.36 394.54
  Q 271.56 402.11 273.21 413.99
  Q 277.68 446.23 283.18 481.24
  Q 284.74 491.14 276.94 495.97
  C 256.24 508.82 245.13 529.85 247.18 553.96
  Q 248.83 573.54 262.53 589.29
  C 268.45 596.10 276.66 599.85 276.34 610.35
  C 275.76 629.75 275.38 648.54 276.46 668.04
  C 276.74 672.95 276.78 679.39 272.14 681.90
  Q 268.51 683.86 264.39 683.69
  Q 239.77 682.68 226.03 701.40
  C 215.47 715.77 214.93 735.76 224.23 750.76
  C 230.20 760.37 240.10 767.42 251.41 769.36
  Q 255.56 770.07 258.55 771.77
  Q 264.38 775.09 265.55 782.84
  Q 287.68 928.70 310.98 1078.56
  Q 312.43 1087.90 314.04 1095.08
  C 319.44 1119.15 335.70 1138.26 358.77 1146.47
  Q 372.16 1151.24 385.00 1151.24
  Q 652.53 1151.21 920.76 1151.31
  Q 932.99 1151.31 939.94 1150.18
  C 966.63 1145.82 987.07 1128.93 996.23 1103.06
  Q 998.71 1096.07 999.74 1089.50
  Q 1022.50 944.21 1047.36 780.95
  C 1048.74 771.82 1054.80 770.62 1062.49 769.18
  C 1082.63 765.42 1095.26 746.01 1094.80 726.52
  C 1094.22 701.70 1074.69 683.79 1050.21 683.35
  Q 1037.79 683.13 1025.12 683.29
  A 0.65 0.64 -87.6 0 1 1024.47 682.58
  Q 1024.98 677.45 1025.61 673.01
  Q 1037.39 589.79 1049.49 505.43
  Q 1057.44 449.97 1063.44 402.24
  C 1070.38 347.08 1037.23 297.11 984.56 279.94
  Q 944.60 266.91 907.38 281.60
  C 869.33 296.61 840.04 332.08 834.20 372.41
  Q 825.44 432.96 816.60 493.85
  Q 816.51 494.45 815.91 494.39
  Z"
/>
<path fill="#432d15" d="
  M 816.60 493.85
  Q 825.44 432.96 834.20 372.41
  C 840.04 332.08 869.33 296.61 907.38 281.60
  Q 944.60 266.91 984.56 279.94
  C 1037.23 297.11 1070.38 347.08 1063.44 402.24
  Q 1057.44 449.97 1049.49 505.43
  Q 1037.39 589.79 1025.61 673.01
  Q 1024.98 677.45 1024.47 682.58
  A 0.65 0.64 -87.6 0 0 1025.12 683.29
  Q 1037.79 683.13 1050.21 683.35
  C 1074.69 683.79 1094.22 701.70 1094.80 726.52
  C 1095.26 746.01 1082.63 765.42 1062.49 769.18
  C 1054.80 770.62 1048.74 771.82 1047.36 780.95
  Q 1022.50 944.21 999.74 1089.50
  Q 998.71 1096.07 996.23 1103.06
  C 987.07 1128.93 966.63 1145.82 939.94 1150.18
  Q 932.99 1151.31 920.76 1151.31
  Q 652.53 1151.21 385.00 1151.24
  Q 372.16 1151.24 358.77 1146.47
  C 335.70 1138.26 319.44 1119.15 314.04 1095.08
  Q 312.43 1087.90 310.98 1078.56
  Q 287.68 928.70 265.55 782.84
  Q 264.38 775.09 258.55 771.77
  Q 255.56 770.07 251.41 769.36
  C 240.10 767.42 230.20 760.37 224.23 750.76
  C 214.93 735.76 215.47 715.77 226.03 701.40
  Q 239.77 682.68 264.39 683.69
  Q 268.51 683.86 272.14 681.90
  C 276.78 679.39 276.74 672.95 276.46 668.04
  C 275.38 648.54 275.76 629.75 276.34 610.35
  C 276.66 599.85 268.45 596.10 262.53 589.29
  Q 248.83 573.54 247.18 553.96
  C 245.13 529.85 256.24 508.82 276.94 495.97
  Q 284.74 491.14 283.18 481.24
  Q 277.68 446.23 273.21 413.99
  Q 271.56 402.11 271.36 394.54
  C 270.05 346.36 297.54 300.49 342.79 282.68
  Q 372.54 270.97 404.82 275.67
  C 450.32 282.29 485.90 315.33 498.72 359.25
  C 503.17 374.48 505.14 390.49 506.80 406.20
  C 508.65 423.64 511.86 440.84 514.02 458.24
  Q 515.06 466.61 516.07 474.82
  Q 516.92 481.77 523.63 484.14
  Q 531.57 486.94 540.22 487.68
  C 551.31 488.62 560.02 485.32 567.24 476.75
  Q 571.14 472.11 573.49 467.38
  Q 593.78 426.48 635.46 404.40
  C 663.68 389.45 694.04 386.17 724.01 398.81
  C 759.59 413.82 786.42 445.07 805.22 478.04
  Q 809.69 485.88 814.11 493.30
  Q 814.68 494.27 815.91 494.39
  Q 816.51 494.45 816.60 493.85
  Z
  M 473.21 380.85
  C 465.19 328.67 417.19 292.04 364.47 306.70
  C 327.81 316.90 303.02 347.44 300.94 385.69
  Q 300.53 393.25 301.95 405.76
  Q 303.25 417.24 304.70 426.77
  Q 308.87 454.08 312.39 478.91
  Q 313.31 485.41 319.99 484.72
  Q 351.43 481.49 378.60 479.88
  Q 412.35 477.87 430.50 478.43
  Q 451.99 479.09 478.69 481.05
  C 482.98 481.36 487.14 480.83 486.42 475.51
  C 482.15 443.94 478.05 412.33 473.21 380.85
  Z
  M 984.11 311.49
  Q 950.71 296.66 918.23 309.04
  C 888.86 320.24 867.78 347.54 863.26 378.32
  Q 850.04 468.33 838.86 546.85
  Q 838.02 552.77 839.81 558.54
  Q 857.22 614.49 860.34 676.16
  Q 860.70 683.31 867.44 683.51
  C 872.13 683.64 877.52 683.26 881.51 683.26
  Q 926.25 683.25 970.99 683.24
  C 976.67 683.24 982.86 683.74 988.01 683.44
  Q 994.35 683.08 995.22 676.94
  Q 1014.75 539.32 1033.25 407.48
  Q 1034.95 395.36 1034.88 387.69
  C 1034.58 354.12 1014.60 325.03 984.11 311.49
  Z
  M 713.14 426.58
  Q 683.92 413.75 654.43 428.21
  C 633.82 438.31 616.80 455.70 603.17 475.57
  Q 571.45 521.83 556.14 577.92
  Q 543.14 625.61 540.00 678.28
  C 539.64 684.38 547.63 683.69 551.59 683.47
  Q 555.17 683.27 558.92 683.25
  Q 582.41 683.12 605.91 683.47
  C 610.93 683.55 613.89 682.85 615.47 677.91
  Q 619.75 664.56 627.41 654.37
  C 637.75 640.62 652.11 632.74 669.08 628.53
  Q 701.91 620.38 731.95 612.97
  C 739.26 611.18 750.10 609.02 755.55 616.01
  C 759.50 621.08 759.19 628.91 758.08 635.09
  Q 753.44 661.00 734.25 678.27
  Q 731.58 680.68 729.13 682.75
  Q 728.48 683.30 729.33 683.30
  Q 780.03 683.07 823.88 683.50
  Q 831.37 683.58 830.95 676.36
  C 827.13 611.25 811.00 547.14 778.19 490.97
  C 764.52 467.57 747.13 447.04 724.64 432.69
  Q 719.31 429.29 713.14 426.58
  Z
  M 278.73 536.78
  Q 275.05 546.25 276.97 554.76
  C 279.23 564.76 285.71 572.65 294.86 577.44
  C 301.26 580.78 305.64 586.92 305.68 594.00
  Q 305.82 622.38 305.73 651.25
  C 305.70 659.45 305.23 668.09 305.63 676.24
  C 305.90 681.75 310.32 683.75 315.26 683.63
  Q 326.07 683.37 336.00 683.34
  Q 413.93 683.13 497.31 683.30
  C 499.90 683.30 502.40 683.53 505.01 683.40
  C 510.12 683.14 510.50 679.50 510.71 675.43
  C 513.38 623.35 524.01 571.86 543.73 523.51
  C 546.12 517.64 541.20 516.12 536.76 515.68
  Q 525.64 514.56 511.75 513.06
  C 443.96 505.73 375.52 507.07 307.70 515.80
  C 294.51 517.50 283.53 524.36 278.73 536.78
  Z
  M 695.32 734.37
  C 725.85 744.69 756.63 754.98 787.37 765.39
  C 793.34 767.41 794.13 764.19 795.64 759.58
  Q 803.45 735.73 810.84 713.33
  Q 811.06 712.69 810.38 712.70
  Q 790.09 713.14 768.67 713.41
  Q 756.78 713.57 745.32 712.69
  Q 734.42 711.87 728.21 712.82
  C 715.41 714.80 704.32 724.51 695.19 733.82
  Q 694.82 734.20 695.32 734.37
  Z
  M 1011.62 721.91
  Q 1007.49 730.61 1002.14 741.23
  A 0.39 0.39 0.0 0 0 1002.49 741.79
  C 1017.69 741.55 1032.27 742.32 1048.07 741.67
  Q 1053.92 741.43 1056.35 740.47
  C 1064.37 737.30 1067.39 728.55 1063.52 720.81
  C 1062.10 717.98 1058.76 716.63 1055.91 715.78
  Q 1041.13 711.39 1023.94 712.41
  C 1021.80 712.54 1016.34 713.25 1015.12 715.33
  Q 1013.17 718.66 1011.62 721.91
  Z
  M 297.63 739.13
  C 302.04 730.57 306.18 722.05 310.41 713.32
  Q 310.71 712.71 310.03 712.71
  Q 290.25 712.82 266.31 712.70
  C 256.90 712.65 250.26 715.02 247.61 724.66
  Q 246.22 729.72 249.56 734.87
  Q 252.45 739.34 257.68 740.13
  Q 270.48 742.07 283.28 742.22
  Q 289.17 742.28 294.60 741.41
  Q 296.63 741.08 297.63 739.13
  Z
  M 342.27 716.01
  C 338.15 724.38 334.17 732.81 329.91 741.15
  A 0.40 0.40 0.0 0 0 330.27 741.73
  Q 355.41 741.77 380.63 741.74
  Q 384.06 741.73 385.55 738.71
  Q 389.07 731.56 393.12 723.91
  Q 395.92 718.61 397.20 713.08
  A 0.27 0.27 0.0 0 0 396.94 712.75
  Q 371.15 712.74 349.90 712.76
  C 347.06 712.76 343.71 713.09 342.27 716.01
  Z
  M 426.60 722.83
  Q 422.23 732.16 417.80 740.84
  Q 417.54 741.35 418.11 741.39
  Q 430.67 742.41 440.66 741.47
  C 445.89 740.98 447.25 737.63 446.06 732.96
  Q 443.84 724.26 440.53 715.52
  C 439.06 711.66 432.33 712.06 430.56 715.15
  Q 428.60 718.57 426.60 722.83
  Z
  M 472.97 723.79
  Q 487.71 780.73 504.05 846.81
  A 0.51 0.50 64.0 0 0 504.85 847.09
  L 671.95 713.40
  Q 672.78 712.73 671.71 712.73
  Q 576.93 712.78 481.69 712.71
  C 478.56 712.71 470.54 711.65 471.51 717.16
  Q 472.07 720.30 472.97 723.79
  Z
  M 885.64 732.35
  Q 890.16 722.80 895.04 713.18
  A 0.30 0.30 0.0 0 0 894.77 712.74
  Q 874.04 712.77 852.11 712.72
  C 849.61 712.72 847.59 713.54 845.78 715.29
  Q 838.21 722.59 834.49 733.45
  C 833.65 735.91 832.53 741.75 836.78 741.75
  Q 854.81 741.75 876.79 741.74
  C 882.23 741.74 883.61 736.65 885.64 732.35
  Z
  M 970.33 738.53
  C 974.25 730.00 978.50 721.73 982.74 713.33
  Q 983.04 712.73 982.37 712.73
  Q 958.13 712.79 933.52 712.71
  C 930.49 712.70 927.83 714.01 926.48 716.79
  Q 920.57 728.96 914.32 741.36
  A 0.28 0.27 12.8 0 0 914.57 741.75
  Q 936.87 741.74 964.15 741.76
  C 966.57 741.76 969.28 740.81 970.33 738.53
  Z
  M 451.2108 843.7957
  A 13.96 13.96 0.0 0 0 437.2752 829.8114
  L 378.4553 829.7087
  A 13.96 13.96 0.0 0 0 364.4710 843.6443
  L 364.4692 844.6843
  A 13.96 13.96 0.0 0 0 378.4048 858.6686
  L 437.2247 858.7713
  A 13.96 13.96 0.0 0 0 451.2090 844.8357
  L 451.2108 843.7957
  Z
  M 698.63 838.44
  C 696.39 832.11 689.93 829.72 683.70 829.73
  Q 642.02 829.82 602.36 829.68
  C 594.29 829.65 587.10 831.18 584.41 839.50
  C 580.54 851.50 589.58 858.67 600.47 858.70
  Q 642.33 858.80 683.86 858.71
  Q 688.79 858.70 693.01 856.55
  C 699.52 853.23 700.89 844.83 698.63 838.44
  Z
  M 845.77 843.72
  A 13.96 13.96 0.0 0 0 831.81 829.76
  L 772.97 829.76
  A 13.96 13.96 0.0 0 0 759.01 843.72
  L 759.01 844.76
  A 13.96 13.96 0.0 0 0 772.97 858.72
  L 831.81 858.72
  A 13.96 13.96 0.0 0 0 845.77 844.76
  L 845.77 843.72
  Z
  M 977.2690 843.6016
  A 13.94 13.94 0.0 0 0 963.3047 829.6860
  L 889.9048 829.8141
  A 13.94 13.94 0.0 0 0 875.9891 843.7784
  L 875.9910 844.8784
  A 13.94 13.94 0.0 0 0 889.9553 858.7940
  L 963.3552 858.6659
  A 13.94 13.94 0.0 0 0 977.2709 844.7016
  L 977.2690 843.6016
  Z
  M 465.79 916.83
  A 14.05 14.05 0.0 0 0 451.74 902.78
  L 363.82 902.78
  A 14.05 14.05 0.0 0 0 349.77 916.83
  L 349.77 917.69
  A 14.05 14.05 0.0 0 0 363.82 931.74
  L 451.74 931.74
  A 14.05 14.05 0.0 0 0 465.79 917.69
  L 465.79 916.83
  Z
  M 543.57 902.77
  C 537.14 902.78 529.78 904.15 526.78 910.51
  C 524.51 915.34 524.08 921.73 527.76 926.03
  C 531.34 930.21 538.00 931.73 543.25 931.73
  Q 593.49 931.73 651.92 931.77
  C 659.02 931.77 667.76 929.39 669.99 922.06
  Q 671.55 916.91 669.07 911.17
  C 666.27 904.67 659.46 902.77 652.81 902.76
  C 636.48 902.74 620.74 902.49 605.00 902.94
  Q 598.99 903.11 592.99 902.96
  C 576.54 902.55 560.24 902.75 543.57 902.77
  Z
  M 801.98 916.75
  A 13.96 13.96 0.0 0 0 788.02 902.79
  L 729.18 902.79
  A 13.96 13.96 0.0 0 0 715.22 916.75
  L 715.22 917.77
  A 13.96 13.96 0.0 0 0 729.18 931.73
  L 788.02 931.73
  A 13.96 13.96 0.0 0 0 801.98 917.77
  L 801.98 916.75
  Z
  M 948.04 916.74
  A 13.96 13.96 0.0 0 0 934.08 902.78
  L 860.70 902.78
  A 13.96 13.96 0.0 0 0 846.74 916.74
  L 846.74 917.78
  A 13.96 13.96 0.0 0 0 860.70 931.74
  L 934.08 931.74
  A 13.96 13.96 0.0 0 0 948.04 917.78
  L 948.04 916.74
  Z
  M 465.75 989.78
  A 13.93 13.93 0.0 0 0 451.82 975.85
  L 392.98 975.85
  A 13.93 13.93 0.0 0 0 379.05 989.78
  L 379.05 990.96
  A 13.93 13.93 0.0 0 0 392.98 1004.89
  L 451.82 1004.89
  A 13.93 13.93 0.0 0 0 465.75 990.96
  L 465.75 989.78
  Z
  M 582.72 989.76
  A 13.91 13.91 0.0 0 0 568.81 975.85
  L 509.93 975.85
  A 13.91 13.91 0.0 0 0 496.02 989.76
  L 496.02 990.98
  A 13.91 13.91 0.0 0 0 509.93 1004.89
  L 568.81 1004.89
  A 13.91 13.91 0.0 0 0 582.72 990.98
  L 582.72 989.76
  Z
  M 699.67 989.87
  A 14.00 14.00 0.0 0 0 685.67 975.87
  L 626.91 975.87
  A 14.00 14.00 0.0 0 0 612.91 989.87
  L 612.91 990.89
  A 14.00 14.00 0.0 0 0 626.91 1004.89
  L 685.67 1004.89
  A 14.00 14.00 0.0 0 0 699.67 990.89
  L 699.67 989.87
  Z
  M 759.12 987.31
  C 757.28 997.63 764.74 1004.55 774.54 1004.67
  C 779.26 1004.72 784.15 1004.94 788.84 1004.96
  Q 840.44 1005.17 891.25 1004.82
  Q 895.95 1004.78 901.00 1004.72
  C 911.32 1004.57 921.15 999.87 918.57 987.43
  C 916.64 978.10 908.90 975.92 900.47 975.77
  C 892.21 975.62 884.06 976.01 875.87 976.01
  Q 826.70 976.01 777.58 975.98
  C 769.88 975.98 760.74 978.28 759.12 987.31
  Z
  M 494.02 1068.85
  C 498.77 1055.30 488.49 1049.00 476.75 1049.00
  Q 429.47 1048.99 381.29 1049.01
  C 372.43 1049.01 364.55 1052.75 364.46 1062.84
  C 364.36 1074.26 372.03 1077.98 382.38 1077.99
  Q 428.68 1078.04 479.36 1077.96
  C 485.49 1077.95 491.85 1075.06 494.02 1068.85
  Z
  M 626.52 1062.92
  A 13.90 13.90 0.0 0 0 612.62 1049.02
  L 553.68 1049.02
  A 13.90 13.90 0.0 0 0 539.78 1062.92
  L 539.78 1064.06
  A 13.90 13.90 0.0 0 0 553.68 1077.96
  L 612.62 1077.96
  A 13.90 13.90 0.0 0 0 626.52 1064.06
  L 626.52 1062.92
  Z
  M 816.36 1060.95
  C 814.80 1052.66 808.19 1049.02 800.40 1049.01
  Q 751.67 1048.99 703.08 1049.00
  C 695.82 1049.00 688.54 1051.53 686.56 1059.28
  C 683.06 1072.99 693.52 1078.00 705.17 1078.00
  Q 750.14 1078.04 798.51 1077.95
  C 808.59 1077.93 818.61 1072.91 816.36 1060.95
  Z
  M 948.04 1062.97
  A 13.96 13.96 0.0 0 0 934.08 1049.01
  L 875.26 1049.01
  A 13.96 13.96 0.0 0 0 861.30 1062.97
  L 861.30 1063.99
  A 13.96 13.96 0.0 0 0 875.26 1077.95
  L 934.08 1077.95
  A 13.96 13.96 0.0 0 0 948.04 1063.99
  L 948.04 1062.97
  Z"
/>
<path fill="#f7f7f7" d="
  M 364.47 306.70
  C 417.19 292.04 465.19 328.67 473.21 380.85
  C 478.05 412.33 482.15 443.94 486.42 475.51
  C 487.14 480.83 482.98 481.36 478.69 481.05
  Q 451.99 479.09 430.50 478.43
  Q 412.35 477.87 378.60 479.88
  Q 351.43 481.49 319.99 484.72
  Q 313.31 485.41 312.39 478.91
  Q 308.87 454.08 304.70 426.77
  Q 303.25 417.24 301.95 405.76
  Q 300.53 393.25 300.94 385.69
  C 303.02 347.44 327.81 316.90 364.47 306.70
  Z
  M 431.72 405.05
  C 404.97 396.11 377.58 387.04 350.48 378.08
  C 343.99 375.94 336.94 375.72 332.44 381.58
  C 324.33 392.13 330.18 402.13 341.37 405.94
  Q 378.45 418.58 420.90 432.47
  Q 424.93 433.79 428.85 434.83
  Q 432.51 435.81 437.63 433.41
  C 446.79 429.12 448.13 416.29 441.33 409.83
  Q 438.79 407.41 431.72 405.05
  Z"
/>
<path fill="#f7f7f7" d="
  M 984.11 311.49
  C 1014.60 325.03 1034.58 354.12 1034.88 387.69
  Q 1034.95 395.36 1033.25 407.48
  Q 1014.75 539.32 995.22 676.94
  Q 994.35 683.08 988.01 683.44
  C 982.86 683.74 976.67 683.24 970.99 683.24
  Q 926.25 683.25 881.51 683.26
  C 877.52 683.26 872.13 683.64 867.44 683.51
  Q 860.70 683.31 860.34 676.16
  Q 857.22 614.49 839.81 558.54
  Q 838.02 552.77 838.86 546.85
  Q 850.04 468.33 863.26 378.32
  C 867.78 347.54 888.86 320.24 918.23 309.04
  Q 950.71 296.66 984.11 311.49
  Z
  M 998.77 418.70
  C 1008.24 415.37 1009.31 404.80 1004.16 397.20
  C 998.22 388.44 990.02 390.95 981.74 393.71
  Q 938.44 408.15 900.76 420.82
  C 893.58 423.23 888.78 429.21 890.24 437.04
  Q 892.29 447.99 902.90 449.63
  Q 905.55 450.04 908.32 449.14
  Q 963.71 431.06 998.77 418.70
  Z
  M 991.2188 487.9562
  A 13.86 13.86 0.0 0 0 973.6772 479.2102
  L 884.8003 508.9480
  A 13.86 13.86 0.0 0 0 876.0544 526.4896
  L 876.5812 528.0638
  A 13.86 13.86 0.0 0 0 894.1228 536.8098
  L 982.9997 507.0720
  A 13.86 13.86 0.0 0 0 991.7456 489.5304
  L 991.2188 487.9562
  Z
  M 976.7901 576.1725
  A 14.30 14.30 0.0 0 0 958.7074 567.1174
  L 870.5757 596.4349
  A 14.30 14.30 0.0 0 0 861.5206 614.5176
  L 861.8299 615.4475
  A 14.30 14.30 0.0 0 0 879.9126 624.5026
  L 968.0443 595.1851
  A 14.30 14.30 0.0 0 0 977.0994 577.1024
  L 976.7901 576.1725
  Z"
/>
<path fill="#432d15" d="
  M 350.48 378.08
  C 377.58 387.04 404.97 396.11 431.72 405.05
  Q 438.79 407.41 441.33 409.83
  C 448.13 416.29 446.79 429.12 437.63 433.41
  Q 432.51 435.81 428.85 434.83
  Q 424.93 433.79 420.90 432.47
  Q 378.45 418.58 341.37 405.94
  C 330.18 402.13 324.33 392.13 332.44 381.58
  C 336.94 375.72 343.99 375.94 350.48 378.08
  Z"
/>
<path fill="#432d15" d="
  M 998.77 418.70
  Q 963.71 431.06 908.32 449.14
  Q 905.55 450.04 902.90 449.63
  Q 892.29 447.99 890.24 437.04
  C 888.78 429.21 893.58 423.23 900.76 420.82
  Q 938.44 408.15 981.74 393.71
  C 990.02 390.95 998.22 388.44 1004.16 397.20
  C 1009.31 404.80 1008.24 415.37 998.77 418.70
  Z"
/>
<path fill="#f7f7f7" d="
  M 713.14 426.58
  Q 719.31 429.29 724.64 432.69
  C 747.13 447.04 764.52 467.57 778.19 490.97
  C 811.00 547.14 827.13 611.25 830.95 676.36
  Q 831.37 683.58 823.88 683.50
  Q 780.03 683.07 729.33 683.30
  Q 728.48 683.30 729.13 682.75
  Q 731.58 680.68 734.25 678.27
  Q 753.44 661.00 758.08 635.09
  C 759.19 628.91 759.50 621.08 755.55 616.01
  C 750.10 609.02 739.26 611.18 731.95 612.97
  Q 701.91 620.38 669.08 628.53
  C 652.11 632.74 637.75 640.62 627.41 654.37
  Q 619.75 664.56 615.47 677.91
  C 613.89 682.85 610.93 683.55 605.91 683.47
  Q 582.41 683.12 558.92 683.25
  Q 555.17 683.27 551.59 683.47
  C 547.63 683.69 539.64 684.38 540.00 678.28
  Q 543.14 625.61 556.14 577.92
  Q 571.45 521.83 603.17 475.57
  C 616.80 455.70 633.82 438.31 654.43 428.21
  Q 683.92 413.75 713.14 426.58
  Z
  M 711.82 560.07
  C 737.97 550.35 756.91 526.69 758.53 498.64
  C 759.40 483.54 751.46 476.62 736.51 480.28
  Q 705.39 487.90 673.00 495.91
  Q 661.55 498.75 655.00 501.61
  C 629.83 512.58 610.97 538.88 612.64 566.67
  C 613.34 578.33 622.34 582.62 632.74 580.17
  Q 655.39 574.83 692.55 565.40
  Q 708.16 561.43 711.82 560.07
  Z"
/>
<rect fill="#432d15" x="-60.72" y="-14.69" transform="translate(933.90,508.01) rotate(-18.5)" width="121.44" height="29.38" rx="13.86"/>
<path fill="#432d15" d="
  M 758.53 498.64
  C 756.91 526.69 737.97 550.35 711.82 560.07
  Q 708.16 561.43 692.55 565.40
  Q 655.39 574.83 632.74 580.17
  C 622.34 582.62 613.34 578.33 612.64 566.67
  C 610.97 538.88 629.83 512.58 655.00 501.61
  Q 661.55 498.75 673.00 495.91
  Q 705.39 487.90 736.51 480.28
  C 751.46 476.62 759.40 483.54 758.53 498.64
  Z"
/>
<path fill="#f7f7f7" d="
  M 278.73 536.78
  C 283.53 524.36 294.51 517.50 307.70 515.80
  C 375.52 507.07 443.96 505.73 511.75 513.06
  Q 525.64 514.56 536.76 515.68
  C 541.20 516.12 546.12 517.64 543.73 523.51
  C 524.01 571.86 513.38 623.35 510.71 675.43
  C 510.50 679.50 510.12 683.14 505.01 683.40
  C 502.40 683.53 499.90 683.30 497.31 683.30
  Q 413.93 683.13 336.00 683.34
  Q 326.07 683.37 315.26 683.63
  C 310.32 683.75 305.90 681.75 305.63 676.24
  C 305.23 668.09 305.70 659.45 305.73 651.25
  Q 305.82 622.38 305.68 594.00
  C 305.64 586.92 301.26 580.78 294.86 577.44
  C 285.71 572.65 279.23 564.76 276.97 554.76
  Q 275.05 546.25 278.73 536.78
  Z
  M 393.24 551.94
  A 14.73 14.73 0.0 0 0 378.51 537.21
  A 14.73 14.73 0.0 0 0 363.78 551.94
  A 14.73 14.73 0.0 0 0 378.51 566.67
  A 14.73 14.73 0.0 0 0 393.24 551.94
  Z
  M 495.55 566.55
  A 14.73 14.73 0.0 0 0 480.82 551.82
  A 14.73 14.73 0.0 0 0 466.09 566.55
  A 14.73 14.73 0.0 0 0 480.82 581.28
  A 14.73 14.73 0.0 0 0 495.55 566.55
  Z
  M 378.70 639.57
  A 14.73 14.73 0.0 0 0 363.97 624.84
  A 14.73 14.73 0.0 0 0 349.24 639.57
  A 14.73 14.73 0.0 0 0 363.97 654.30
  A 14.73 14.73 0.0 0 0 378.70 639.57
  Z
  M 480.99 654.17
  A 14.73 14.73 0.0 0 0 466.26 639.44
  A 14.73 14.73 0.0 0 0 451.53 654.17
  A 14.73 14.73 0.0 0 0 466.26 668.90
  A 14.73 14.73 0.0 0 0 480.99 654.17
  Z"
/>
<circle fill="#432d15" cx="378.51" cy="551.94" r="14.73"/>
<circle fill="#432d15" cx="480.82" cy="566.55" r="14.73"/>
<rect fill="#432d15" x="-60.74" y="-14.79" transform="translate(919.31,595.81) rotate(-18.4)" width="121.48" height="29.58" rx="14.30"/>
<circle fill="#432d15" cx="363.97" cy="639.57" r="14.73"/>
<circle fill="#432d15" cx="466.26" cy="654.17" r="14.73"/>
<path fill="#f7f7f7" d="
  M 787.37 765.39
  C 756.63 754.98 725.85 744.69 695.32 734.37
  Q 694.82 734.20 695.19 733.82
  C 704.32 724.51 715.41 714.80 728.21 712.82
  Q 734.42 711.87 745.32 712.69
  Q 756.78 713.57 768.67 713.41
  Q 790.09 713.14 810.38 712.70
  Q 811.06 712.69 810.84 713.33
  Q 803.45 735.73 795.64 759.58
  C 794.13 764.19 793.34 767.41 787.37 765.39
  Z"
/>
<path fill="#f7f7f7" d="
  M 1011.62 721.91
  Q 1013.17 718.66 1015.12 715.33
  C 1016.34 713.25 1021.80 712.54 1023.94 712.41
  Q 1041.13 711.39 1055.91 715.78
  C 1058.76 716.63 1062.10 717.98 1063.52 720.81
  C 1067.39 728.55 1064.37 737.30 1056.35 740.47
  Q 1053.92 741.43 1048.07 741.67
  C 1032.27 742.32 1017.69 741.55 1002.49 741.79
  A 0.39 0.39 0.0 0 1 1002.14 741.23
  Q 1007.49 730.61 1011.62 721.91
  Z"
/>
<path fill="#f7f7f7" d="
  M 310.41 713.32
  C 306.18 722.05 302.04 730.57 297.63 739.13
  Q 296.63 741.08 294.60 741.41
  Q 289.17 742.28 283.28 742.22
  Q 270.48 742.07 257.68 740.13
  Q 252.45 739.34 249.56 734.87
  Q 246.22 729.72 247.61 724.66
  C 250.26 715.02 256.90 712.65 266.31 712.70
  Q 290.25 712.82 310.03 712.71
  Q 310.71 712.71 310.41 713.32
  Z"
/>
<path fill="#f7f7f7" d="
  M 329.91 741.15
  C 334.17 732.81 338.15 724.38 342.27 716.01
  C 343.71 713.09 347.06 712.76 349.90 712.76
  Q 371.15 712.74 396.94 712.75
  A 0.27 0.27 0.0 0 1 397.20 713.08
  Q 395.92 718.61 393.12 723.91
  Q 389.07 731.56 385.55 738.71
  Q 384.06 741.73 380.63 741.74
  Q 355.41 741.77 330.27 741.73
  A 0.40 0.40 0.0 0 1 329.91 741.15
  Z"
/>
<path fill="#f7f7f7" d="
  M 426.60 722.83
  Q 428.60 718.57 430.56 715.15
  C 432.33 712.06 439.06 711.66 440.53 715.52
  Q 443.84 724.26 446.06 732.96
  C 447.25 737.63 445.89 740.98 440.66 741.47
  Q 430.67 742.41 418.11 741.39
  Q 417.54 741.35 417.80 740.84
  Q 422.23 732.16 426.60 722.83
  Z"
/>
<path fill="#f7f7f7" d="
  M 472.97 723.79
  Q 472.07 720.30 471.51 717.16
  C 470.54 711.65 478.56 712.71 481.69 712.71
  Q 576.93 712.78 671.71 712.73
  Q 672.78 712.73 671.95 713.40
  L 504.85 847.09
  A 0.51 0.50 64.0 0 1 504.05 846.81
  Q 487.71 780.73 472.97 723.79
  Z"
/>
<path fill="#f7f7f7" d="
  M 885.64 732.35
  C 883.61 736.65 882.23 741.74 876.79 741.74
  Q 854.81 741.75 836.78 741.75
  C 832.53 741.75 833.65 735.91 834.49 733.45
  Q 838.21 722.59 845.78 715.29
  C 847.59 713.54 849.61 712.72 852.11 712.72
  Q 874.04 712.77 894.77 712.74
  A 0.30 0.30 0.0 0 1 895.04 713.18
  Q 890.16 722.80 885.64 732.35
  Z"
/>
<path fill="#f7f7f7" d="
  M 982.74 713.33
  C 978.50 721.73 974.25 730.00 970.33 738.53
  C 969.28 740.81 966.57 741.76 964.15 741.76
  Q 936.87 741.74 914.57 741.75
  A 0.28 0.27 12.8 0 1 914.32 741.36
  Q 920.57 728.96 926.48 716.79
  C 927.83 714.01 930.49 712.70 933.52 712.71
  Q 958.13 712.79 982.37 712.73
  Q 983.04 712.73 982.74 713.33
  Z"
/>
<rect fill="#f7f7f7" x="-43.37" y="-14.48" transform="translate(407.84,844.24) rotate(0.1)" width="86.74" height="28.96" rx="13.96"/>
<path fill="#f7f7f7" d="
  M 683.70 829.73
  C 689.93 829.72 696.39 832.11 698.63 838.44
  C 700.89 844.83 699.52 853.23 693.01 856.55
  Q 688.79 858.70 683.86 858.71
  Q 642.33 858.80 600.47 858.70
  C 589.58 858.67 580.54 851.50 584.41 839.50
  C 587.10 831.18 594.29 829.65 602.36 829.68
  Q 642.02 829.82 683.70 829.73
  Z"
/>
<rect fill="#f7f7f7" x="759.01" y="829.76" width="86.76" height="28.96" rx="13.96"/>
<rect fill="#f7f7f7" x="-50.64" y="-14.49" transform="translate(926.63,844.24) rotate(-0.1)" width="101.28" height="28.98" rx="13.94"/>
<rect fill="#f7f7f7" x="349.77" y="902.78" width="116.02" height="28.96" rx="14.05"/>
<path fill="#f7f7f7" d="
  M 526.78 910.51
  C 529.78 904.15 537.14 902.78 543.57 902.77
  C 560.24 902.75 576.54 902.55 592.99 902.96
  Q 598.99 903.11 605.00 902.94
  C 620.74 902.49 636.48 902.74 652.81 902.76
  C 659.46 902.77 666.27 904.67 669.07 911.17
  Q 671.55 916.91 669.99 922.06
  C 667.76 929.39 659.02 931.77 651.92 931.77
  Q 593.49 931.73 543.25 931.73
  C 538.00 931.73 531.34 930.21 527.76 926.03
  C 524.08 921.73 524.51 915.34 526.78 910.51
  Z"
/>
<rect fill="#f7f7f7" x="715.22" y="902.79" width="86.76" height="28.94" rx="13.96"/>
<rect fill="#f7f7f7" x="846.74" y="902.78" width="101.30" height="28.96" rx="13.96"/>
<rect fill="#f7f7f7" x="379.05" y="975.85" width="86.70" height="29.04" rx="13.93"/>
<rect fill="#f7f7f7" x="496.02" y="975.85" width="86.70" height="29.04" rx="13.91"/>
<rect fill="#f7f7f7" x="612.91" y="975.87" width="86.76" height="29.02" rx="14.00"/>
<path fill="#f7f7f7" d="
  M 759.12 987.31
  C 760.74 978.28 769.88 975.98 777.58 975.98
  Q 826.70 976.01 875.87 976.01
  C 884.06 976.01 892.21 975.62 900.47 975.77
  C 908.90 975.92 916.64 978.10 918.57 987.43
  C 921.15 999.87 911.32 1004.57 901.00 1004.72
  Q 895.95 1004.78 891.25 1004.82
  Q 840.44 1005.17 788.84 1004.96
  C 784.15 1004.94 779.26 1004.72 774.54 1004.67
  C 764.74 1004.55 757.28 997.63 759.12 987.31
  Z"
/>
<path fill="#f7f7f7" d="
  M 494.02 1068.85
  C 491.85 1075.06 485.49 1077.95 479.36 1077.96
  Q 428.68 1078.04 382.38 1077.99
  C 372.03 1077.98 364.36 1074.26 364.46 1062.84
  C 364.55 1052.75 372.43 1049.01 381.29 1049.01
  Q 429.47 1048.99 476.75 1049.00
  C 488.49 1049.00 498.77 1055.30 494.02 1068.85
  Z"
/>
<rect fill="#f7f7f7" x="539.78" y="1049.02" width="86.74" height="28.94" rx="13.90"/>
<path fill="#f7f7f7" d="
  M 800.40 1049.01
  C 808.19 1049.02 814.80 1052.66 816.36 1060.95
  C 818.61 1072.91 808.59 1077.93 798.51 1077.95
  Q 750.14 1078.04 705.17 1078.00
  C 693.52 1078.00 683.06 1072.99 686.56 1059.28
  C 688.54 1051.53 695.82 1049.00 703.08 1049.00
  Q 751.67 1048.99 800.40 1049.01
  Z"
/>
<rect fill="#f7f7f7" x="861.30" y="1049.01" width="86.74" height="28.94" rx="13.96"/>
</svg>
